<svg width="221" height="63" viewBox="0 0 221 63" fill="none" xmlns="http://www.w3.org/2000/svg">
<path d="M131.093 33.4927C131.411 33.6573 131.674 33.909 131.853 34.218C132.032 34.5271 132.118 34.8806 132.101 35.2368C132.11 35.5358 132.054 35.8331 131.935 36.1079C131.816 36.3827 131.639 36.6283 131.415 36.8275C130.948 37.2369 130.343 37.4561 129.721 37.4415H126.472V29.8089H129.497C130.1 29.7922 130.686 30.007 131.135 30.4089C131.357 30.5978 131.534 30.8336 131.652 31.0991C131.771 31.3646 131.829 31.6532 131.821 31.9438C131.834 32.2413 131.774 32.5372 131.647 32.8068C131.52 33.0764 131.33 33.3116 131.093 33.4927ZM129.497 31.2182H127.984V32.9066H129.497C129.605 32.9081 129.712 32.8865 129.811 32.8431C129.91 32.7998 129.999 32.7358 130.071 32.6555C130.153 32.5792 130.216 32.4859 130.258 32.3821C130.299 32.2784 130.316 32.1668 130.309 32.0555C130.317 31.8338 130.236 31.618 130.085 31.4555C130.009 31.3754 129.918 31.3118 129.817 31.2686C129.716 31.2253 129.607 31.2035 129.497 31.2043V31.2182ZM127.984 36.0322H129.721C129.837 36.0355 129.954 36.0149 130.062 35.9717C130.17 35.9285 130.269 35.8636 130.351 35.781C130.434 35.6965 130.499 35.596 130.543 35.4857C130.586 35.3754 130.607 35.2576 130.603 35.1392C130.607 35.0207 130.587 34.9026 130.544 34.7921C130.501 34.6817 130.435 34.5814 130.351 34.4973C130.269 34.4148 130.17 34.3499 130.062 34.3067C129.954 34.2635 129.837 34.2429 129.721 34.2462H127.984V36.0322Z" fill="#383C3F"/>
<path d="M136.821 37.581C135.766 37.581 134.754 37.1635 134.009 36.4204C133.263 35.6772 132.844 34.6692 132.844 33.6182C132.844 32.5672 133.263 31.5593 134.009 30.8161C134.754 30.073 135.766 29.6554 136.821 29.6554C137.491 29.6452 138.152 29.8087 138.739 30.1299C139.315 30.4348 139.799 30.8876 140.14 31.4415L138.837 32.195C138.654 31.8586 138.377 31.5824 138.039 31.3996C137.561 31.1512 137.017 31.0566 136.483 31.1291C135.949 31.2016 135.45 31.4375 135.056 31.8043C134.626 32.3088 134.39 32.9492 134.39 33.6113C134.39 34.2733 134.626 34.9137 135.056 35.4182C135.45 35.785 135.949 36.0209 136.483 36.0934C137.017 36.1659 137.561 36.0714 138.039 35.8229C138.377 35.6402 138.654 35.3639 138.837 35.0275L140.14 35.781C139.807 36.3413 139.321 36.796 138.739 37.0927C138.153 37.4187 137.492 37.587 136.821 37.581Z" fill="#383C3F"/>
<path d="M142.661 34.274V35.9903H145.896V37.3857H141.162V29.8089H145.84V31.2043H142.661V32.8229H145.559V34.2182L142.661 34.274Z" fill="#383C3F"/>
<path d="M147.044 29.8089H149.845C150.189 29.8011 150.532 29.8626 150.852 29.9897C151.172 30.1168 151.463 30.3068 151.707 30.5485C152.183 31.0334 152.449 31.6844 152.449 32.3624C152.449 33.0404 152.183 33.6915 151.707 34.1764C151.463 34.418 151.172 34.6081 150.852 34.7352C150.532 34.8622 150.189 34.9237 149.845 34.9159H148.444V37.4275H147.044V29.8089ZM148.57 33.4927H149.971C150.12 33.4966 150.268 33.4688 150.406 33.411C150.544 33.3533 150.667 33.2669 150.769 33.1578C150.98 32.9357 151.096 32.6403 151.091 32.3345C151.096 32.1828 151.069 32.0317 151.014 31.8902C150.959 31.7488 150.875 31.6199 150.769 31.5113C150.667 31.4021 150.544 31.3158 150.406 31.258C150.268 31.2003 150.12 31.1724 149.971 31.1764H148.57V33.4927Z" fill="#383C3F"/>
<path d="M160.012 36.4368C159.646 36.8049 159.209 37.0958 158.728 37.2924C158.247 37.4889 157.731 37.5871 157.211 37.581C156.69 37.5903 156.174 37.4937 155.692 37.2969C155.21 37.1002 154.774 36.8075 154.41 36.4368C154.041 36.0721 153.749 35.6371 153.551 35.1577C153.354 34.6783 153.256 34.1643 153.262 33.6461C153.254 33.1249 153.351 32.6073 153.548 32.1241C153.744 31.6408 154.036 31.2016 154.405 30.8323C154.774 30.463 155.214 30.1711 155.698 29.9738C156.183 29.7765 156.702 29.6777 157.225 29.6834C157.745 29.6773 158.261 29.7754 158.742 29.972C159.223 30.1686 159.66 30.4595 160.026 30.8275C160.745 31.58 161.146 32.5792 161.146 33.6182C161.146 34.6573 160.745 35.6565 160.026 36.4089L160.012 36.4368ZM155.446 35.4182C155.925 35.8845 156.571 36.1421 157.241 36.1342C157.91 36.1264 158.549 35.8538 159.017 35.3764C159.485 34.899 159.744 34.2559 159.736 33.5886C159.728 32.9214 159.455 32.2845 158.975 31.8182C158.502 31.3613 157.87 31.1058 157.211 31.1058C156.552 31.1058 155.919 31.3613 155.446 31.8182C154.995 32.3097 154.744 32.9519 154.744 33.6182C154.744 34.2846 154.995 34.9268 155.446 35.4182Z" fill="#383C3F"/>
<path d="M165.963 37.581C165.443 37.5895 164.927 37.4925 164.445 37.2958C163.964 37.0991 163.527 36.8068 163.163 36.4368C162.474 35.6694 162.093 34.6758 162.093 33.6461C162.093 32.6165 162.474 31.6229 163.163 30.8554C163.527 30.4855 163.964 30.1932 164.445 29.9965C164.927 29.7998 165.443 29.7028 165.963 29.7113C166.633 29.7042 167.293 29.8675 167.882 30.1857C168.455 30.4944 168.938 30.9464 169.282 31.4973L167.98 32.2508C167.787 31.9167 167.507 31.6416 167.168 31.4555C166.808 31.2577 166.402 31.1567 165.991 31.1624C165.659 31.1503 165.327 31.2059 165.016 31.3258C164.705 31.4458 164.423 31.6276 164.185 31.8601C163.755 32.3646 163.519 33.0051 163.519 33.6671C163.519 34.3291 163.755 34.9696 164.185 35.4741C164.582 35.8402 165.083 36.0755 165.619 36.1479C166.156 36.2203 166.701 36.1263 167.182 35.8787C167.519 35.696 167.797 35.4197 167.98 35.0834L169.282 35.8368C168.946 36.3943 168.461 36.8482 167.882 37.1485C167.289 37.4516 166.629 37.6004 165.963 37.581Z" fill="#383C3F"/>
<path d="M173.848 37.581C172.793 37.581 171.781 37.1635 171.036 36.4204C170.29 35.6772 169.871 34.6692 169.871 33.6182C169.871 32.5672 170.29 31.5593 171.036 30.8161C171.781 30.073 172.793 29.6554 173.848 29.6554C174.517 29.6484 175.178 29.8117 175.766 30.1299C176.34 30.4386 176.822 30.8906 177.167 31.4415L175.864 32.195C175.672 31.8608 175.391 31.5858 175.052 31.3996C174.692 31.2018 174.287 31.1008 173.876 31.1066C173.543 31.0945 173.211 31.1501 172.9 31.27C172.59 31.39 172.307 31.5718 172.069 31.8043C171.639 32.3088 171.403 32.9492 171.403 33.6113C171.403 34.2733 171.639 34.9137 172.069 35.4182C172.467 35.7844 172.967 36.0197 173.504 36.0921C174.04 36.1645 174.586 36.0705 175.066 35.8229C175.404 35.6402 175.681 35.3639 175.864 35.0275L177.167 35.781C176.83 36.3385 176.346 36.7924 175.766 37.0927C175.179 37.4152 174.519 37.5832 173.848 37.581Z" fill="#383C3F"/>
<path d="M184.113 37.4275H182.6V32.781L179.324 37.4275H178.175V29.8089H179.688V34.4694L182.965 29.8089H184.113V37.4275Z" fill="#383C3F"/>
<path d="M191.577 37.4275H190.065V32.781L186.788 37.4275H185.639V29.8089H187.152V34.4694L190.457 29.8089H191.605L191.577 37.4275ZM190.177 29.0554H187.012V27.9113H190.177V29.0554Z" fill="#383C3F"/>
<path d="M196.745 37.581C195.69 37.581 194.678 37.1635 193.932 36.4204C193.187 35.6772 192.768 34.6692 192.768 33.6182C192.768 32.5672 193.187 31.5593 193.932 30.8161C194.678 30.073 195.69 29.6554 196.745 29.6554C197.414 29.6484 198.075 29.8117 198.663 30.1299C199.238 30.437 199.721 30.8893 200.064 31.4415L198.775 32.195C198.583 31.8608 198.302 31.5858 197.963 31.3996C197.603 31.2018 197.198 31.1008 196.787 31.1066C196.454 31.092 196.121 31.1464 195.81 31.2665C195.499 31.3866 195.216 31.5697 194.98 31.8043C194.55 32.3088 194.314 32.9492 194.314 33.6113C194.314 34.2733 194.55 34.9137 194.98 35.4182C195.216 35.6528 195.499 35.8359 195.81 35.956C196.121 36.0761 196.454 36.1306 196.787 36.1159C197.198 36.1217 197.603 36.0207 197.963 35.8229C198.304 35.6404 198.586 35.3644 198.775 35.0275L200.064 35.781C199.728 36.3394 199.243 36.7936 198.663 37.0927C198.076 37.4152 197.415 37.5832 196.745 37.581Z" fill="#383C3F"/>
<path d="M204.111 33.4927L207.052 37.4136H205.315L202.514 33.8415V37.4136H201.016V29.8089H202.514V33.1717L205.147 29.8089H206.884L204.111 33.4927Z" fill="#383C3F"/>
<path d="M214.656 37.4275H213.018L212.555 36.0322H209.503L209.054 37.4275H207.416L210.063 29.8089H211.925L214.656 37.4275ZM211.043 31.5392L210.063 34.6508H212.163L211.043 31.5392Z" fill="#383C3F"/>
<path d="M217.933 29.8089H221V37.4275H219.487V34.7764H218.619L216.869 37.4275H215.174L217.037 34.6368C216.559 34.4655 216.144 34.1542 215.846 33.7438C215.547 33.3396 215.385 32.8508 215.384 32.3485C215.384 32.0156 215.45 31.6861 215.579 31.3787C215.707 31.0714 215.895 30.7924 216.132 30.5577C216.368 30.323 216.65 30.1372 216.959 30.0111C217.268 29.885 217.599 29.8211 217.933 29.8229V29.8089ZM217.933 33.4647H219.487V31.2043H217.933C217.795 31.2049 217.658 31.2351 217.532 31.2929C217.407 31.3507 217.295 31.4347 217.205 31.5392C217.102 31.6438 217.021 31.7683 216.968 31.9051C216.915 32.0419 216.891 32.188 216.897 32.3345C216.89 32.6298 217.001 32.9158 217.205 33.1299C217.292 33.2395 217.403 33.3288 217.529 33.3914C217.654 33.4541 217.792 33.4886 217.933 33.4927V33.4647Z" fill="#383C3F"/>
<path d="M132.914 49.1485C132.358 49.7029 131.65 50.0808 130.88 50.2346C130.109 50.3884 129.309 50.3111 128.583 50.0124C127.856 49.7138 127.234 49.2073 126.796 48.5568C126.358 47.9063 126.123 47.1411 126.122 46.3578C126.12 45.7059 126.28 45.0637 126.587 44.4881C126.895 43.9125 127.34 43.4214 127.883 43.0582C128.426 42.695 129.051 42.4709 129.702 42.4059C130.353 42.3408 131.01 42.4369 131.615 42.6854C132.22 42.9339 132.754 43.3273 133.17 43.8306C133.585 44.334 133.87 44.9318 133.999 45.571C134.127 46.2102 134.095 46.8711 133.906 47.4952C133.717 48.1192 133.376 48.6871 132.914 49.1485ZM128.334 48.1159C128.81 48.5624 129.438 48.811 130.092 48.811C130.745 48.811 131.374 48.5624 131.849 48.1159C132.086 47.8838 132.272 47.6052 132.395 47.2977C132.518 46.9903 132.575 46.6606 132.564 46.3299C132.574 45.9972 132.516 45.6659 132.393 45.3563C132.27 45.0468 132.085 44.7656 131.849 44.5299C131.379 44.0739 130.748 43.8187 130.092 43.8187C129.435 43.8187 128.805 44.0739 128.334 44.5299C128.098 44.7656 127.913 45.0468 127.791 45.3563C127.668 45.6659 127.61 45.9972 127.62 46.3299C127.608 46.6606 127.666 46.9903 127.789 47.2977C127.912 47.6052 128.097 47.8838 128.334 48.1159Z" fill="#383C3F"/>
<path d="M134.216 50.1392V48.7438C134.397 48.7932 134.588 48.7919 134.768 48.7402C134.949 48.6885 135.111 48.5884 135.238 48.4508C135.503 48.036 135.622 47.5449 135.574 47.0555V42.5066H140.77V50.1392H139.272V43.9438H137.073V46.9717C137.133 47.4578 137.083 47.9512 136.925 48.4151C136.768 48.879 136.507 49.3014 136.163 49.6508C135.887 49.8571 135.573 50.0066 135.239 50.0905C134.904 50.1743 134.557 50.1909 134.216 50.1392Z" fill="#383C3F"/>
<path d="M148.234 50.1392H146.736V45.4927L143.445 50.1392H142.296V42.5066H143.809V47.181L147.044 42.5066H148.192L148.234 50.1392Z" fill="#383C3F"/>
<path d="M155.712 42.5066H157.253V50.1392H155.754V45.1857L153.612 48.7299H153.43L151.245 45.1996V50.1392H149.845V42.5066H151.399L153.584 46.1206L155.712 42.5066Z" fill="#383C3F"/>
<path d="M158.793 42.5066H164.507V50.1392H162.995V43.9438H160.292V50.1392H158.793V42.5066Z" fill="#383C3F"/>
<path d="M171.971 50.1392H170.459V45.4927L167.182 50.1392H166.034V42.5066H167.546V47.181L170.851 42.5066H171.999L171.971 50.1392Z" fill="#383C3F"/>
<path d="M180.066 50.1392H178.427L177.965 48.7438H174.912L174.45 50.1392H172.826L175.5 42.5066H177.377L180.066 50.1392ZM176.453 44.2508L175.402 47.3624H177.489L176.453 44.2508Z" fill="#383C3F"/>
<path d="M186.844 42.5066V48.702H187.656V51.6322H186.158V50.2368H181.956V51.6322H180.444V48.702H181.186C181.657 47.9265 181.878 47.0251 181.816 46.1206V42.5066H186.844ZM182.783 48.702H185.331V43.9159H183.301V46.1345C183.352 47.0205 183.174 47.9047 182.783 48.702Z" fill="#383C3F"/>
<path d="M195.386 50.1392H193.748L193.286 48.7438H190.233L189.771 50.1392H188.146L190.821 42.5066H192.697L195.386 50.1392ZM191.759 44.2508L190.709 47.3624H192.809L191.759 44.2508Z" fill="#383C3F"/>
<path d="M133.852 61.3996V55.2182H135.364V62.795H126.472V55.2182H127.984V61.3996H130.239V55.2182H131.639V61.3996H133.852Z" fill="#383C3F"/>
<path d="M139.93 58.9299L142.843 62.795H141.106L138.305 59.2229V62.795H136.891V55.2182H138.403V58.6089L141.022 55.2461H142.759L139.93 58.9299Z" fill="#383C3F"/>
<path d="M149.509 61.8601C148.755 62.5799 147.752 62.9817 146.708 62.9817C145.664 62.9817 144.66 62.5799 143.907 61.8601C143.541 61.493 143.251 61.0576 143.054 60.5787C142.857 60.0999 142.756 59.587 142.759 59.0694C142.755 58.548 142.855 58.031 143.054 57.5485C143.252 57.0661 143.545 56.6277 143.915 56.259C144.285 55.8903 144.725 55.5985 145.209 55.4007C145.694 55.2029 146.212 55.1029 146.736 55.1066C147.259 55.1048 147.777 55.206 148.26 55.4045C148.743 55.603 149.183 55.8948 149.552 56.2632C149.922 56.6315 150.215 57.0691 150.414 57.5507C150.613 58.0323 150.715 58.5485 150.713 59.0694C150.711 59.5914 150.603 60.1076 150.396 60.5871C150.189 61.0666 149.887 61.4996 149.509 61.8601ZM144.929 60.8275C145.405 61.274 146.033 61.5226 146.687 61.5226C147.34 61.5226 147.969 61.274 148.444 60.8275C148.68 60.5918 148.865 60.3106 148.988 60.0011C149.111 59.6915 149.169 59.3602 149.158 59.0275C149.174 58.6921 149.119 58.3572 148.996 58.0446C148.873 57.732 148.685 57.4488 148.444 57.2136C148.217 56.9815 147.945 56.7985 147.643 56.676C147.342 56.5536 147.019 56.4943 146.694 56.502C146.364 56.4998 146.038 56.5643 145.734 56.6915C145.43 56.8188 145.155 57.0061 144.926 57.2422C144.697 57.4783 144.518 57.7582 144.401 58.0651C144.283 58.372 144.23 58.6994 144.243 59.0275C144.229 59.3582 144.283 59.6883 144.401 59.9978C144.519 60.3072 144.698 60.5895 144.929 60.8275Z" fill="#383C3F"/>
<path d="M150.811 62.795V61.3996C150.992 61.4459 151.182 61.4431 151.362 61.3916C151.542 61.3401 151.704 61.2417 151.833 61.1066C152.094 60.6902 152.212 60.2004 152.169 59.7113V55.2182H157.365V62.795H155.866V56.6554H153.668V59.6833C153.727 60.1693 153.677 60.6624 153.519 61.1262C153.361 61.5899 153.101 62.0124 152.758 62.3624C152.19 62.754 151.492 62.9092 150.811 62.795Z" fill="#383C3F"/>
<path d="M160.404 57.7299H161.804C162.149 57.7204 162.492 57.7812 162.812 57.9083C163.132 58.0355 163.423 58.2264 163.667 58.4694C163.912 58.7031 164.106 58.985 164.236 59.2973C164.366 59.6095 164.43 59.9453 164.423 60.2833C164.43 60.6235 164.367 60.9614 164.237 61.276C164.106 61.5905 163.912 61.8749 163.667 62.1113C163.421 62.3516 163.13 62.5408 162.81 62.6678C162.49 62.7948 162.148 62.857 161.804 62.8508H159.003V55.2182H160.502L160.404 57.7299ZM160.404 61.4415H161.804C161.952 61.4447 162.099 61.4178 162.236 61.3627C162.374 61.3075 162.498 61.2251 162.602 61.1206C162.811 60.894 162.927 60.5978 162.927 60.2903C162.927 59.9829 162.811 59.6866 162.602 59.4601C162.501 59.3509 162.377 59.2646 162.24 59.2069C162.102 59.1491 161.954 59.1213 161.804 59.1252H160.404V61.4415Z" fill="#383C3F"/>
<path d="M169.815 58.2461V55.2182H171.313V62.795H169.815V59.6833H167.014V62.795H165.501V55.2182H167.014V58.2461H169.815Z" fill="#383C3F"/>
<path d="M178.777 62.795H177.265V58.1903L173.988 62.795H172.84V55.2182H174.352V59.8787L177.629 55.2182H178.777V62.795Z" fill="#383C3F"/>
<path d="M183.343 58.9299L186.256 62.795H184.519L181.788 59.2229V62.795H180.276V55.2182H181.788V58.6089L184.407 55.2461H186.144L183.343 58.9299Z" fill="#383C3F"/>
<path d="M192.922 61.8601C192.168 62.5799 191.165 62.9817 190.121 62.9817C189.077 62.9817 188.073 62.5799 187.32 61.8601C186.954 61.493 186.664 61.0576 186.467 60.5787C186.27 60.0999 186.169 59.587 186.172 59.0694C186.168 58.548 186.268 58.031 186.467 57.5485C186.665 57.0661 186.958 56.6277 187.328 56.259C187.698 55.8903 188.138 55.5985 188.622 55.4007C189.107 55.2029 189.625 55.1029 190.149 55.1066C190.672 55.1048 191.19 55.206 191.673 55.4045C192.156 55.603 192.595 55.8948 192.965 56.2632C193.335 56.6315 193.628 57.0691 193.827 57.5507C194.026 58.0323 194.128 58.5485 194.126 59.0694C194.124 59.5914 194.016 60.1076 193.809 60.5871C193.602 61.0666 193.3 61.4996 192.922 61.8601ZM188.342 60.8275C188.818 61.274 189.446 61.5226 190.1 61.5226C190.753 61.5226 191.382 61.274 191.857 60.8275C192.093 60.5918 192.278 60.3106 192.401 60.0011C192.524 59.6915 192.582 59.3602 192.571 59.0275C192.587 58.6921 192.532 58.3572 192.409 58.0446C192.286 57.732 192.098 57.4488 191.857 57.2136C191.63 56.9815 191.358 56.7985 191.056 56.676C190.755 56.5536 190.432 56.4943 190.107 56.502C189.777 56.4998 189.451 56.5643 189.147 56.6915C188.843 56.8188 188.568 57.0061 188.339 57.2422C188.11 57.4783 187.931 57.7582 187.814 58.0651C187.696 58.372 187.643 58.6994 187.656 59.0275C187.642 59.3582 187.696 59.6883 187.814 59.9978C187.931 60.3072 188.111 60.5895 188.342 60.8275Z" fill="#383C3F"/>
<path d="M199.868 58.888C200.184 59.054 200.447 59.3059 200.625 59.6147C200.804 59.9234 200.891 60.2762 200.876 60.6322C200.886 60.9313 200.829 61.2289 200.711 61.5038C200.592 61.7787 200.414 62.0242 200.19 62.2229C199.727 62.6422 199.12 62.8672 198.495 62.8508H195.246V55.2182H198.271C198.88 55.2088 199.47 55.4279 199.924 55.8322C200.141 56.0242 200.313 56.2609 200.429 56.526C200.545 56.791 200.602 57.078 200.596 57.3671C200.606 57.6602 200.545 57.9514 200.418 58.2161C200.291 58.4809 200.103 58.7113 199.868 58.888ZM198.271 56.6275H196.759V58.302H198.271C198.378 58.3027 198.484 58.2821 198.582 58.2413C198.681 58.2006 198.77 58.1405 198.845 58.0647C198.925 57.9869 198.987 57.8932 199.028 57.7899C199.069 57.6865 199.088 57.5758 199.083 57.4647C199.091 57.2431 199.011 57.0273 198.859 56.8647C198.783 56.7872 198.691 56.7262 198.59 56.6854C198.489 56.6446 198.38 56.6249 198.271 56.6275ZM196.759 61.3996H198.495C198.612 61.4029 198.728 61.3823 198.836 61.3391C198.945 61.2959 199.043 61.231 199.125 61.1485C199.293 60.9716 199.384 60.7358 199.377 60.4926C199.381 60.254 199.291 60.0234 199.125 59.8508C199.043 59.7682 198.945 59.7034 198.836 59.6602C198.728 59.617 198.612 59.5964 198.495 59.5996H196.759V61.3996Z" fill="#383C3F"/>
<path d="M140.574 11.2648C141.462 11.7572 142.195 12.487 142.69 13.372C143.185 14.257 143.422 15.2621 143.375 16.2741C143.413 17.1691 143.249 18.0612 142.895 18.8847C142.541 19.7082 142.007 20.4421 141.33 21.0322C139.781 22.2763 137.828 22.9117 135.841 22.8182H126.416V0.478706H135.252C137.204 0.375863 139.126 0.986129 140.658 2.19498C141.32 2.76669 141.843 3.48074 142.187 4.28325C142.532 5.08575 142.689 5.95573 142.647 6.82754C142.681 7.67817 142.511 8.52463 142.15 9.29644C141.789 10.0683 141.249 10.7431 140.574 11.2648ZM135.098 5.58568H132.157V9.10196H135.098C135.582 9.12039 136.055 8.95021 136.415 8.62754C136.587 8.46258 136.721 8.2624 136.808 8.04078C136.895 7.81917 136.933 7.58139 136.919 7.34382C136.929 7.10665 136.89 6.86992 136.803 6.64884C136.716 6.42776 136.584 6.22722 136.415 6.0601C136.052 5.74241 135.581 5.57298 135.098 5.58568ZM132.157 17.7113H135.7C135.957 17.7194 136.214 17.6768 136.454 17.5858C136.694 17.4947 136.914 17.3572 137.101 17.181C137.286 16.9982 137.432 16.7808 137.532 16.5413C137.632 16.3018 137.683 16.045 137.683 15.7857C137.683 15.5263 137.632 15.2695 137.532 15.0301C137.432 14.7906 137.286 14.5732 137.101 14.3903C136.914 14.216 136.693 14.0806 136.453 13.992C136.212 13.9034 135.957 13.8633 135.7 13.8741H132.157V17.7113Z" fill="#383C3F"/>
<path d="M156.847 23.2927C155.3 23.3411 153.759 23.0732 152.32 22.5055C150.881 21.9378 149.574 21.0824 148.48 19.9919C147.386 18.9015 146.527 17.5992 145.957 16.1655C145.388 14.7317 145.119 13.1968 145.167 11.6554C145.123 10.1146 145.394 8.58086 145.966 7.14819C146.537 5.71552 147.395 4.41402 148.488 3.32335C149.582 2.23268 150.887 1.37577 152.324 0.805073C153.761 0.234374 155.3 -0.0381134 156.847 0.00428711C158.803 -0.0172975 160.732 0.463234 162.448 1.39964C164.123 2.30524 165.525 3.63946 166.51 5.26475L161.552 8.05545C161.098 7.29369 160.438 6.67471 159.648 6.2694C158.489 5.6838 157.177 5.46616 155.89 5.64579C154.603 5.82541 153.402 6.39368 152.449 7.27405C151.347 8.46261 150.763 10.0383 150.825 11.6554C150.788 12.459 150.912 13.2619 151.191 14.0168C151.47 14.7716 151.898 15.4632 152.449 16.0508C153.03 16.612 153.719 17.0488 154.476 17.3344C155.232 17.62 156.039 17.7482 156.847 17.7113C157.823 17.7214 158.786 17.4863 159.648 17.0275C160.457 16.5974 161.12 15.9368 161.552 15.1299L166.51 18.0043C165.534 19.637 164.13 20.9734 162.448 21.8694C160.734 22.8126 158.805 23.3026 156.847 23.2927Z" fill="#383C3F"/>
<path d="M187.656 19.9438C186.016 21.597 183.919 22.7257 181.632 23.1858C179.346 23.6459 176.973 23.4166 174.818 22.5271C172.663 21.6375 170.823 20.1282 169.532 18.1918C168.242 16.2554 167.56 13.9798 167.574 11.6554C167.536 10.118 167.818 8.58944 168.401 7.16557C168.984 5.74169 169.856 4.45324 170.963 3.38103C173.198 1.21598 176.192 0.00474235 179.309 0.00474235C182.427 0.00474235 185.421 1.21598 187.656 3.38103C188.767 4.45084 189.645 5.7382 190.233 7.1622C190.821 8.58619 191.107 10.116 191.073 11.6554C191.102 13.1963 190.814 14.7268 190.226 16.1524C189.639 17.578 188.764 18.8683 187.656 19.9438ZM175.052 16.0229C175.902 16.8901 176.994 17.482 178.186 17.7215C179.378 17.9609 180.615 17.8368 181.736 17.3653C182.856 16.8938 183.808 16.0967 184.467 15.0782C185.125 14.0596 185.461 12.8668 185.429 11.6554C185.455 10.8442 185.313 10.0364 185.01 9.28274C184.708 8.52906 184.253 7.84579 183.673 7.27582C183.093 6.70585 182.401 6.26149 181.64 5.97064C180.88 5.67979 180.067 5.54873 179.253 5.58568C178.452 5.56413 177.654 5.70655 176.91 6.00414C176.166 6.30173 175.49 6.74818 174.926 7.31591C174.351 7.87958 173.901 8.55684 173.604 9.30418C173.308 10.0515 173.171 10.8524 173.204 11.6554C173.183 12.4637 173.327 13.2677 173.628 14.0185C173.929 14.7694 174.38 15.4513 174.954 16.0229H175.052Z" fill="#383C3F"/>
<path d="M215.146 17.2927V0.478706H220.874V22.8043H194.014V0.478706H199.742V17.2927H204.573V0.478706H210.315V17.2927H215.146Z" fill="#383C3F"/>
<path d="M19.6059 28.7903C19.7581 28.9431 19.9392 29.0643 20.1387 29.147C20.3382 29.2297 20.5521 29.2723 20.7682 29.2723C20.9843 29.2723 21.1982 29.2297 21.3977 29.147C21.5972 29.0643 21.7783 28.9431 21.9305 28.7903L28.3305 22.4275C28.6342 22.1152 28.804 21.6973 28.804 21.2624C28.804 20.8275 28.6342 20.4097 28.3305 20.0973L23.1069 14.9066L28.3865 9.77173C28.6893 9.46172 28.8588 9.0462 28.8588 8.61359C28.8588 8.18099 28.6893 7.76546 28.3865 7.45545L21.9866 1.00894C21.8314 0.85115 21.6462 0.725794 21.4418 0.640217C21.2374 0.554639 21.0179 0.510559 20.7962 0.510559C20.5745 0.510559 20.355 0.554639 20.1506 0.640217C19.9462 0.725794 19.761 0.85115 19.6059 1.00894L14.4383 6.21359L9.22876 0.994987C9.07528 0.841838 8.893 0.72034 8.69235 0.637443C8.4917 0.554546 8.27662 0.511878 8.05941 0.511878C7.84219 0.511878 7.62711 0.554546 7.42646 0.637443C7.22582 0.72034 7.04354 0.841838 6.89006 0.994987L0.504151 7.35778C0.350445 7.5107 0.228505 7.69232 0.145307 7.89224C0.0621096 8.09216 0.0192859 8.30647 0.0192859 8.52289C0.0192859 8.73932 0.0621096 8.95363 0.145307 9.15355C0.228505 9.35347 0.350445 9.53509 0.504151 9.68801L5.71371 14.9066L0.504151 20.0973C0.344841 20.2485 0.218009 20.4303 0.131348 20.6318C0.0446859 20.8333 0 21.0502 0 21.2694C0.000345471 21.7068 0.171043 22.127 0.476142 22.4415L6.87605 28.8182C7.18719 29.12 7.60422 29.2888 8.0384 29.2888C8.47258 29.2888 8.88961 29.12 9.20075 28.8182L14.4383 23.5996L19.6059 28.7903ZM8.05241 25.3159L3.99119 21.2694L9.20075 16.0787C9.35445 15.9258 9.47639 15.7442 9.55959 15.5442C9.64279 15.3443 9.68561 15.13 9.68561 14.9136C9.68561 14.6972 9.64279 14.4829 9.55959 14.2829C9.47639 14.083 9.35445 13.9014 9.20075 13.7485L3.99119 8.52987L8.05241 4.48336L13.262 9.68801C13.5755 9.99064 13.9948 10.1599 14.4313 10.1599C14.8678 10.1599 15.2872 9.99064 15.6007 9.68801L20.8382 4.48336L24.8994 8.52987L19.6059 13.7345C19.4526 13.8863 19.3309 14.0667 19.2479 14.2655C19.1649 14.4642 19.1222 14.6774 19.1222 14.8927C19.1222 15.1079 19.1649 15.3211 19.2479 15.5199C19.3309 15.7186 19.4526 15.8991 19.6059 16.0508L24.8434 21.2694L20.7822 25.3159L15.5586 20.1252C15.4064 19.9725 15.2253 19.8513 15.0258 19.7686C14.8263 19.6859 14.6124 19.6433 14.3963 19.6433C14.1802 19.6433 13.9663 19.6859 13.7668 19.7686C13.5673 19.8513 13.3862 19.9725 13.234 20.1252L8.05241 25.3159Z" fill="#2092D1"/>
<path d="M66.2678 55.3857C65.4537 54.2917 64.3937 53.4028 63.1728 52.7904C64.2387 51.4706 64.9924 49.9284 65.3779 48.2785C65.7634 46.6285 65.7708 44.9133 65.3995 43.2601C65.3283 42.9516 65.1663 42.6713 64.9343 42.455C64.7023 42.2388 64.4108 42.0964 64.0971 42.0462C62.2113 41.7647 60.2847 41.9615 58.4955 42.6183C57.8358 39.2409 55.901 36.2444 53.0898 34.2462C52.8275 34.0686 52.5177 33.9737 52.2006 33.9737C51.8834 33.9737 51.5736 34.0686 51.3113 34.2462C48.5001 36.2444 46.5653 39.2409 45.9057 42.6183C44.1164 41.9615 42.1898 41.7647 40.304 42.0462C39.9922 42.0972 39.7028 42.2401 39.4731 42.4564C39.2435 42.6728 39.0842 42.9527 39.0156 43.2601C38.6392 44.9143 38.6427 46.6318 39.0258 48.2845C39.409 49.9371 40.1619 51.4822 41.2283 52.8043C40.0074 53.4168 38.9475 54.3056 38.1334 55.3997C37.9355 55.6662 37.8287 55.989 37.8287 56.3206C37.8287 56.6521 37.9355 56.9749 38.1334 57.2415C38.9828 58.3619 40.081 59.2712 41.3419 59.8982C42.6028 60.5251 43.9923 60.8528 45.4015 60.8555C47.1963 60.8674 48.9744 60.5112 50.6251 59.809V61.0229C50.6044 61.2415 50.6297 61.462 50.6995 61.6702C50.7693 61.8785 50.8819 62.0699 51.0302 62.2323C51.1785 62.3947 51.3592 62.5244 51.5608 62.6132C51.7623 62.702 51.9802 62.7478 52.2006 62.7478C52.4209 62.7478 52.6388 62.702 52.8404 62.6132C53.0419 62.5244 53.2226 62.3947 53.3709 62.2323C53.5193 62.0699 53.6319 61.8785 53.7017 61.6702C53.7714 61.462 53.7967 61.2415 53.776 61.0229V59.809C55.4267 60.5112 57.2048 60.8674 58.9996 60.8555C60.4112 60.8495 61.8022 60.5176 63.0633 59.8857C64.3244 59.2538 65.4213 58.3391 66.2678 57.2136C66.4624 56.9483 66.5673 56.6282 66.5673 56.2997C66.5673 55.9711 66.4624 55.651 66.2678 55.3857ZM53.776 54.1578L57.7812 51.3671C57.9498 51.249 58.0932 51.0987 58.203 50.9249C58.3127 50.751 58.3867 50.5572 58.4206 50.3547C58.4544 50.1521 58.4476 49.9448 58.4003 49.745C58.3531 49.5451 58.2664 49.3566 58.1453 49.1904C57.907 48.8661 57.5506 48.6479 57.1525 48.5827C56.7545 48.5175 56.3467 48.6104 56.0167 48.8415L53.776 50.3345V45.8834C53.739 45.4926 53.557 45.1296 53.2657 44.8654C52.9743 44.6012 52.5945 44.4548 52.2006 44.4548C51.8066 44.4548 51.4268 44.6012 51.1355 44.8654C50.8441 45.1296 50.6621 45.4926 50.6251 45.8834V50.3066L48.5105 48.8415C48.1711 48.6052 47.7522 48.5108 47.3438 48.5786C46.9354 48.6465 46.5699 48.8711 46.3258 49.2043C46.0843 49.5435 45.987 49.964 46.0552 50.3743C46.1234 50.7847 46.3515 51.1515 46.6899 51.395L50.6251 54.1857V56.181C49.1068 57.2662 47.2687 57.8161 45.4015 57.7438C43.9902 57.7367 42.6247 57.2438 41.5364 56.3485C42.3674 55.6691 43.3616 55.2171 44.4212 55.0369C44.7241 54.9868 45.0056 54.8493 45.2308 54.6413C45.456 54.4334 45.615 54.1641 45.6881 53.867C45.7611 53.5699 45.7451 53.2579 45.6419 52.9698C45.5386 52.6817 45.3528 52.43 45.1075 52.2462C44.014 51.4161 43.1473 50.3257 42.5869 49.075C42.0266 47.8242 41.7906 46.4533 41.9005 45.088C43.4627 45.07 44.9978 45.4959 46.3258 46.3159C46.5613 46.4467 46.8265 46.5153 47.0961 46.5153C47.3656 46.5153 47.6308 46.4467 47.8663 46.3159C48.1059 46.1949 48.3103 46.0146 48.4599 45.7922C48.6094 45.5699 48.6992 45.313 48.7205 45.0462C48.8723 42.1744 50.1197 39.4689 52.2076 37.4834C54.2997 39.4644 55.5439 42.1736 55.6806 45.0462C55.702 45.3148 55.7933 45.5732 55.9456 45.7959C56.0978 46.0186 56.3058 46.1978 56.5489 46.3159C56.7844 46.4467 57.0495 46.5153 57.3191 46.5153C57.5887 46.5153 57.8538 46.4467 58.0893 46.3159C59.4078 45.4861 60.9414 45.0592 62.5006 45.088C62.6106 46.4533 62.3745 47.8242 61.8142 49.075C61.2539 50.3257 60.3872 51.4161 59.2937 52.2462C59.0541 52.4342 58.8741 52.6873 58.7754 52.9749C58.6768 53.2625 58.6637 53.5724 58.7376 53.8672C58.8116 54.1621 58.9696 54.4294 59.1924 54.6369C59.4153 54.8444 59.6936 54.9833 59.9939 55.0369C61.0245 55.229 61.9886 55.6805 62.7947 56.3485C61.7075 57.2458 60.3413 57.739 58.9296 57.7438C57.0624 57.8161 55.2244 57.2662 53.706 56.181L53.776 54.1578Z" fill="#2092D1"/>
<path d="M45.3176 13.9578C45.7141 13.4035 45.9293 12.7408 45.9337 12.0601V5.5857C45.9337 5.21563 46.0813 4.86072 46.3439 4.59904C46.6065 4.33736 46.9627 4.19035 47.3342 4.19035H49.3508C49.7682 4.15227 50.1563 3.96012 50.4388 3.65163C50.7214 3.34313 50.878 2.94056 50.878 2.52291C50.878 2.10526 50.7214 1.70269 50.4388 1.39419C50.1563 1.0857 49.7682 0.893555 49.3508 0.855469H47.3762C46.1117 0.85893 44.8989 1.35622 43.9982 2.2406C43.0975 3.12497 42.5807 4.32594 42.5587 5.5857V11.3624C42.5715 11.6509 42.5138 11.9382 42.3907 12.1997C42.0051 12.7398 41.4392 13.1257 40.7942 13.288H39.3938C39.1749 13.288 38.9582 13.331 38.7561 13.4144C38.5539 13.4979 38.3701 13.6202 38.2154 13.7744C38.0607 13.9286 37.9379 14.1116 37.8541 14.3131C37.7704 14.5145 37.7273 14.7304 37.7273 14.9485C37.7273 15.1665 37.7704 15.3825 37.8541 15.5839C37.9379 15.7854 38.0607 15.9684 38.2154 16.1226C38.3701 16.2768 38.5539 16.3991 38.7561 16.4826C38.9582 16.566 39.1749 16.609 39.3938 16.609H40.6122C41.0675 16.7359 41.4855 16.9705 41.8305 17.2927C42.1964 17.6152 42.4388 18.054 42.5167 18.5345V24.3113C42.5149 24.9421 42.6382 25.5671 42.8797 26.1503C43.1211 26.7335 43.4759 27.2634 43.9236 27.7095C44.3713 28.1556 44.9031 28.5091 45.4884 28.7497C46.0737 28.9902 46.701 29.1131 47.3342 29.1113H49.3508C49.7928 29.1113 50.2166 28.9363 50.5292 28.6249C50.8417 28.3135 51.0173 27.8912 51.0173 27.4508C51.0173 27.0104 50.8417 26.5881 50.5292 26.2767C50.2166 25.9653 49.7928 25.7903 49.3508 25.7903H47.3762C47.0048 25.7903 46.6486 25.6433 46.3859 25.3817C46.1233 25.12 45.9758 24.7651 45.9758 24.395V17.9206C45.9759 17.2392 45.7603 16.5751 45.3596 16.0229C45.0181 15.555 44.5593 15.1845 44.0292 14.9485C44.5351 14.7309 44.9781 14.3903 45.3176 13.9578Z" fill="#2092D1"/>
<path d="M90.649 25.8043L90.8451 25.6648L91.0411 25.8043C94.2621 27.9671 100.144 31.1206 103.337 27.9392C105.69 25.609 104.905 21.1299 101.208 15.6601L101.082 15.4648L101.208 15.2694C104.905 9.79968 105.69 5.32061 103.337 2.99038C100.984 0.660145 96.5028 1.39968 91.0271 5.11131L90.8311 5.23689L90.635 5.11131C85.1314 1.39968 80.636 0.646192 78.2973 2.99038C75.9586 5.33456 76.7289 9.77177 80.426 15.2694L80.566 15.4648L80.426 15.6601C76.7289 21.1299 75.9586 25.609 78.2973 27.9392C80.636 30.2694 85.1454 29.502 90.649 25.8043ZM100.83 25.4276C100.543 25.6604 100.176 25.7708 99.8078 25.7346C97.802 25.4918 95.8824 24.7793 94.2061 23.6555L93.828 23.4183L94.1921 23.0974C94.9763 22.4136 95.7325 21.702 96.4328 21.0322C97.133 20.3625 97.8332 19.6369 98.5054 18.7997L98.8135 18.4369L99.0655 18.8555C100.83 21.8834 101.614 24.6462 100.83 25.4276ZM94.3041 7.28805C97.7351 5.09735 99.9058 4.49735 100.83 5.46014C101.614 6.24154 100.83 9.00433 99.0515 12.0322L98.7995 12.4369L98.4914 12.0741C97.8052 11.2927 97.0909 10.5392 96.4187 9.84154C95.7465 9.14387 95.0183 8.44619 94.2481 7.84619L93.898 7.53921L94.3041 7.28805ZM90.691 9.89735L90.9151 9.77177L91.1252 9.95317C92.1055 10.7625 93.0017 11.5718 93.926 12.4508C94.8354 13.3378 95.7001 14.2692 96.5168 15.2415L96.6988 15.4648L96.5168 15.688C95.7048 16.6602 94.8448 17.5916 93.94 18.4787C93.0499 19.3849 92.1151 20.2464 91.1392 21.0601L90.9151 21.2415L90.705 21.0601C89.7264 20.2495 88.7915 19.3878 87.9042 18.4787C86.9939 17.5718 86.1397 16.6369 85.3134 15.688L85.1454 15.4648L85.3134 15.2415C86.1397 14.2369 86.9939 13.316 87.9042 12.4508C88.7879 11.552 89.7181 10.6996 90.691 9.89735ZM80.8181 5.48805C81.6163 4.70666 84.3892 5.48805 87.4141 7.26014L87.8342 7.51131L87.4701 7.81828C86.6718 8.502 85.9156 9.21363 85.2294 9.8834C84.5432 10.5532 83.829 11.2787 83.1568 12.116L82.8347 12.4787L82.6246 12.0741C80.7761 9.04619 80.0339 6.2834 80.8181 5.48805ZM82.6246 18.8555L82.8627 18.4369L83.1848 18.7997C83.871 19.595 84.5852 20.3485 85.2574 21.0322C85.9296 21.716 86.6578 22.4276 87.4981 23.0974L87.8762 23.4043L87.4561 23.6555C85.78 24.7798 83.8603 25.4923 81.8544 25.7346C81.4863 25.7708 81.1188 25.6604 80.8321 25.4276C80.0339 24.6462 80.7761 21.8834 82.6246 18.8555Z" fill="#2092D1"/>
<path d="M102.987 45.6043L96.1947 42.2276L92.7916 35.4462C92.5381 34.9408 92.1484 34.5158 91.666 34.2187C91.1837 33.9216 90.6279 33.7643 90.0608 33.7643C89.4938 33.7643 88.9379 33.9216 88.4556 34.2187C87.9733 34.5158 87.5835 34.9408 87.33 35.4462L83.941 42.2276L77.149 45.6043C76.6417 45.8569 76.2152 46.2453 75.917 46.7259C75.6189 47.2064 75.4609 47.7603 75.4609 48.3253C75.4609 48.8902 75.6189 49.4441 75.917 49.9246C76.2152 50.4052 76.6417 50.7936 77.149 51.0462L83.941 54.4229L87.33 61.1904C87.5835 61.6957 87.9733 62.1208 88.4556 62.4179C88.9379 62.7149 89.4938 62.8723 90.0608 62.8723C90.6279 62.8723 91.1837 62.7149 91.666 62.4179C92.1484 62.1208 92.5381 61.6957 92.7916 61.1904L96.1947 54.4229L102.987 51.0322C103.494 50.7796 103.92 50.3913 104.219 49.9107C104.517 49.4301 104.675 48.8763 104.675 48.3113C104.675 47.7463 104.517 47.1925 104.219 46.7119C103.92 46.2313 103.494 45.843 102.987 45.5904V45.6043ZM93.94 51.6322C93.6764 51.7627 93.4608 51.9727 93.3238 52.2322L90.0608 58.609L86.8259 52.302C86.6503 51.9599 86.371 51.6816 86.0276 51.5066L79.6837 48.3253L86.1957 45.088C86.4561 44.9467 86.67 44.7336 86.8119 44.4741L90.0608 37.9857L93.3098 44.4601C93.4518 44.7278 93.6714 44.9466 93.94 45.088L100.452 48.3253L93.94 51.6322Z" fill="#2092D1"/>
<path d="M13.8641 62.5578C13.637 62.5602 13.4123 62.5125 13.2059 62.4183L1.16229 57.5066C0.85728 57.3766 0.596868 57.1609 0.412843 56.8859C0.228818 56.6108 0.129139 56.2883 0.125977 55.9578V41.7532C0.125791 41.4449 0.208918 41.1423 0.366626 40.8772C0.524335 40.612 0.750804 40.394 1.02224 40.2462L13.1779 34.0787C13.4182 33.9551 13.6847 33.8907 13.9551 33.8907C14.2255 33.8907 14.492 33.9551 14.7323 34.0787L26.916 40.2601C27.2036 40.3983 27.4466 40.6141 27.6174 40.8829C27.7882 41.1518 27.8799 41.4629 27.8823 41.7811V56.0555C27.8818 56.4012 27.7757 56.7386 27.578 57.0227C27.3804 57.3069 27.1006 57.5243 26.7759 57.6462L14.5223 62.4462C14.3124 62.5261 14.0887 62.5641 13.8641 62.5578ZM3.52899 54.8276L13.9061 59.0136L24.4092 54.8276V42.7997L13.9061 37.4694L3.48698 42.7578L3.52899 54.8276Z" fill="#2092D1"/>
<path d="M19.6058 48.5485C19.3382 48.55 19.0741 48.4878 18.8356 48.3671L11.8335 44.8229C11.4559 44.6036 11.1788 44.2464 11.0612 43.827C10.9435 43.4076 10.9945 42.959 11.2033 42.5764C11.4062 42.1975 11.7487 41.9117 12.1586 41.779C12.5686 41.6463 13.0142 41.677 13.4019 41.8648L20.404 45.4229C20.733 45.5977 20.9937 45.8774 21.1444 46.2173C21.295 46.5572 21.3269 46.9375 21.2349 47.2976C21.143 47.6576 20.9325 47.9765 20.6371 48.2033C20.3418 48.4301 19.9787 48.5517 19.6058 48.5485Z" fill="#2092D1"/>
<path d="M65.1194 13.1904H63.719C63.0791 13.025 62.5186 12.6395 62.1365 12.102C62.015 11.84 61.9574 11.5532 61.9685 11.2648V5.48803C61.9648 4.21371 61.4541 2.99285 60.5484 2.09307C59.6428 1.19329 58.416 0.688028 57.137 0.688033H55.1204C54.703 0.72612 54.3149 0.918263 54.0324 1.22676C53.7498 1.53525 53.5932 1.93783 53.5932 2.35547C53.5932 2.77312 53.7498 3.1757 54.0324 3.48419C54.3149 3.79269 54.703 3.98483 55.1204 4.02292H57.137C57.327 4.01994 57.5156 4.05551 57.6914 4.12748C57.8671 4.19944 58.0263 4.30629 58.1593 4.44152C58.4257 4.71452 58.5762 5.07937 58.5795 5.46013V11.8927C58.5774 12.5744 58.7932 13.2391 59.1956 13.7904C59.534 14.2579 59.994 14.6245 60.526 14.8508C59.9959 15.0868 59.5371 15.4573 59.1956 15.9252C58.7914 16.4756 58.5754 17.1409 58.5795 17.8229V24.2136C58.5824 24.4029 58.5467 24.5908 58.4745 24.766C58.4023 24.9411 58.295 25.0997 58.1593 25.2322C58.0275 25.37 57.8689 25.4794 57.6931 25.5538C57.5172 25.6282 57.328 25.6659 57.137 25.6648H55.1204C54.6784 25.6648 54.2546 25.8397 53.942 26.1511C53.6295 26.4625 53.4539 26.8849 53.4539 27.3252C53.4539 27.7656 53.6295 28.188 53.942 28.4994C54.2546 28.8108 54.6784 28.9857 55.1204 28.9857H57.137C57.7702 28.9875 58.3974 28.8646 58.9828 28.6241C59.5681 28.3835 60.0999 28.03 60.5476 27.5839C60.9953 27.1378 61.3501 26.608 61.5915 26.0248C61.833 25.4416 61.9563 24.8166 61.9545 24.1857V18.4369C62.0346 17.9571 62.2766 17.519 62.6407 17.195C62.9877 16.8711 63.4118 16.6406 63.873 16.5252H65.1194C65.5368 16.4872 65.9249 16.295 66.2075 15.9865C66.49 15.678 66.6467 15.2754 66.6467 14.8578C66.6467 14.4401 66.49 14.0376 66.2075 13.7291C65.9249 13.4206 65.5368 13.2284 65.1194 13.1904Z" fill="#2092D1"/>
</svg>
